<svg width="35" height="35" viewBox="0 0 35 35" fill="none" xmlns="http://www.w3.org/2000/svg">
<mask id="path-1-inside-1_76_81" fill="white">
<path d="M35.0003 5.77201V9.42552H29.5201V14.9058H25.8666V9.42552H20.3863V5.77201H25.8666V0.291748H29.5201V5.77201H35.0003ZM19.4729 18.5593C20.9855 18.5593 22.213 17.3317 22.213 15.8192C22.213 14.3066 20.9855 13.079 19.4729 13.079C17.9604 13.079 16.7328 14.3066 16.7328 15.8192C16.7328 17.3317 17.9604 18.5593 19.4729 18.5593ZM25.8666 24.467L24.9294 23.4258C23.479 21.8091 20.9471 21.8091 19.493 23.4258L18.2965 24.7593L9.42577 14.9058L3.9455 20.9944V9.42552H16.7328V5.77201H3.9455C1.92694 5.77201 0.291992 7.40696 0.291992 9.42552V31.3466C0.291992 33.3651 1.92694 35.0001 3.9455 35.0001H25.8666C27.8851 35.0001 29.5201 33.3651 29.5201 31.3466V18.5593H25.8666V24.467Z"/>
</mask>
<path d="M35.0003 5.77201V9.42552H29.5201V14.9058H25.8666V9.42552H20.3863V5.77201H25.8666V0.291748H29.5201V5.77201H35.0003ZM19.4729 18.5593C20.9855 18.5593 22.213 17.3317 22.213 15.8192C22.213 14.3066 20.9855 13.079 19.4729 13.079C17.9604 13.079 16.7328 14.3066 16.7328 15.8192C16.7328 17.3317 17.9604 18.5593 19.4729 18.5593ZM25.8666 24.467L24.9294 23.4258C23.479 21.8091 20.9471 21.8091 19.493 23.4258L18.2965 24.7593L9.42577 14.9058L3.9455 20.9944V9.42552H16.7328V5.77201H3.9455C1.92694 5.77201 0.291992 7.40696 0.291992 9.42552V31.3466C0.291992 33.3651 1.92694 35.0001 3.9455 35.0001H25.8666C27.8851 35.0001 29.5201 33.3651 29.5201 31.3466V18.5593H25.8666V24.467Z" fill="#C7C7C7"/>
<path d="M35.0003 5.77201H68.3337V-27.5613H35.0003V5.77201ZM35.0003 9.42552V42.7589H68.3337V9.42552H35.0003ZM29.5201 9.42552V-23.9078H-3.81327V9.42552H29.5201ZM29.5201 14.9058V48.2391H62.8534V14.9058H29.5201ZM25.8666 14.9058H-7.46678V48.2391H25.8666V14.9058ZM25.8666 9.42552H59.1999V-23.9078H25.8666V9.42552ZM20.3863 9.42552H-12.947V42.7589H20.3863V9.42552ZM20.3863 5.77201V-27.5613H-12.947V5.77201H20.3863ZM25.8666 5.77201V39.1053H59.1999V5.77201H25.8666ZM25.8666 0.291748V-33.0416H-7.46678V0.291748H25.8666ZM29.5201 0.291748H62.8534V-33.0416H29.5201V0.291748ZM29.5201 5.77201H-3.81327V39.1053H29.5201V5.77201ZM25.8666 24.467L1.09008 46.7658L59.1999 111.332V24.467H25.8666ZM24.9294 23.4258L0.11814 45.6858L0.135534 45.7052L0.152958 45.7246L24.9294 23.4258ZM19.493 23.4258L-5.29042 1.13468L-5.30384 1.1496L-5.31724 1.16454L19.493 23.4258ZM18.2965 24.7593L-6.47679 47.0617L18.3379 74.6256L43.1067 47.0205L18.2965 24.7593ZM9.42577 14.9058L34.199 -7.39659L9.42343 -34.9171L-15.3496 -7.39427L9.42577 14.9058ZM3.9455 20.9944H-29.3878V107.853L28.7209 43.2944L3.9455 20.9944ZM3.9455 9.42552V-23.9078H-29.3878V9.42552H3.9455ZM16.7328 9.42552V42.7589H50.0661V9.42552H16.7328ZM16.7328 5.77201H50.0661V-27.5613H16.7328V5.77201ZM29.5201 18.5593H62.8534V-14.774H29.5201V18.5593ZM25.8666 18.5593V-14.774H-7.46678V18.5593H25.8666ZM1.667 5.77201V9.42552H68.3337V5.77201H1.667ZM35.0003 -23.9078H29.5201V42.7589H35.0003V-23.9078ZM-3.81327 9.42552V14.9058H62.8534V9.42552H-3.81327ZM29.5201 -18.4275H25.8666V48.2391H29.5201V-18.4275ZM59.1999 14.9058V9.42552H-7.46678V14.9058H59.1999ZM25.8666 -23.9078H20.3863V42.7589H25.8666V-23.9078ZM53.7196 9.42552V5.77201H-12.947V9.42552H53.7196ZM20.3863 39.1053H25.8666V-27.5613H20.3863V39.1053ZM59.1999 5.77201V0.291748H-7.46678V5.77201H59.1999ZM25.8666 33.6251H29.5201V-33.0416H25.8666V33.6251ZM-3.81327 0.291748V5.77201H62.8534V0.291748H-3.81327ZM29.5201 39.1053H35.0003V-27.5613H29.5201V39.1053ZM19.4729 51.8926C39.395 51.8926 55.5464 35.7412 55.5464 15.8192H-11.1203C-11.1203 -1.07778 2.57598 -14.774 19.4729 -14.774V51.8926ZM55.5464 15.8192C55.5464 -4.10288 39.395 -20.2543 19.4729 -20.2543V46.4124C2.57598 46.4124 -11.1203 32.7161 -11.1203 15.8192H55.5464ZM19.4729 -20.2543C-0.449129 -20.2543 -16.6005 -4.10288 -16.6005 15.8192H50.0661C50.0661 32.7161 36.3699 46.4124 19.4729 46.4124V-20.2543ZM-16.6005 15.8192C-16.6005 35.7412 -0.449129 51.8926 19.4729 51.8926V-14.774C36.3699 -14.774 50.0661 -1.07778 50.0661 15.8192H-16.6005ZM50.643 2.1682L49.7059 1.12695L0.152958 45.7246L1.09008 46.7658L50.643 2.1682ZM49.7407 1.16569C35.0274 -15.2339 9.38937 -15.1864 -5.29042 1.13468L44.2764 45.7169C32.5048 58.8046 11.9305 58.8521 0.11814 45.6858L49.7407 1.16569ZM-5.31724 1.16454L-6.51377 2.49807L43.1067 47.0205L44.3033 45.687L-5.31724 1.16454ZM43.0698 2.45692L34.199 -7.39659L-15.3475 37.2082L-6.47679 47.0617L43.0698 2.45692ZM-15.3496 -7.39427L-20.8299 -1.3057L28.7209 43.2944L34.2011 37.2058L-15.3496 -7.39427ZM37.2788 20.9944V9.42552H-29.3878V20.9944H37.2788ZM3.9455 42.7589H16.7328V-23.9078H3.9455V42.7589ZM50.0661 9.42552V5.77201H-16.6005V9.42552H50.0661ZM16.7328 -27.5613H3.9455V39.1053H16.7328V-27.5613ZM3.9455 -27.5613C-16.4826 -27.5613 -33.0413 -11.0025 -33.0413 9.42552H33.6253C33.6253 25.8164 20.3364 39.1053 3.9455 39.1053V-27.5613ZM-33.0413 9.42552V31.3466H33.6253V9.42552H-33.0413ZM-33.0413 31.3466C-33.0413 51.7746 -16.4826 68.3334 3.9455 68.3334V1.66675C20.3364 1.66675 33.6253 14.9556 33.6253 31.3466H-33.0413ZM3.9455 68.3334H25.8666V1.66675H3.9455V68.3334ZM25.8666 68.3334C46.2946 68.3334 62.8534 51.7746 62.8534 31.3466H-3.81327C-3.81327 14.9556 9.47563 1.66675 25.8666 1.66675V68.3334ZM62.8534 31.3466V18.5593H-3.81327V31.3466H62.8534ZM29.5201 -14.774H25.8666V51.8926H29.5201V-14.774ZM-7.46678 18.5593V24.467H59.1999V18.5593H-7.46678Z" fill="#C7C7C7" mask="url(#path-1-inside-1_76_81)"/>
</svg>
