<svg width="38" height="38" viewBox="0 0 38 38" fill="none" xmlns="http://www.w3.org/2000/svg">
<path d="M10.9037 22.1232L34.5477 1.31683C35.3817 0.582295 36.6518 0.663105 37.3853 1.4971C38.0608 2.26686 38.0443 3.40648 37.3853 4.15242L16.579 27.7975C15.1109 29.4644 12.5706 29.6281 10.9037 28.1611C9.23774 26.6941 9.07405 24.1538 10.5421 22.4858C10.6509 22.3625 10.7835 22.2309 10.9037 22.1232ZM0.114557 37.7132C-0.0335933 38.3214 7.16467 38.2758 10.2033 34.3679C12.1676 31.8421 11.661 29.3743 9.69152 28.1363C7.10872 26.517 4.37778 28.0772 4.06283 29.9804C3.3573 34.2343 3.26302 35.5459 0.114557 37.7132Z" fill="#C7C7C7"/>
</svg>
