<svg width="70" height="34" viewBox="0 0 70 34" fill="none" xmlns="http://www.w3.org/2000/svg">
<g clip-path="url(#clip0_76_87)">
<rect width="70" height="34" rx="5" fill="#515151"/>
<path d="M14.8809 23C14.4251 23 14.1973 22.7559 14.1973 22.2676V9.72852C14.1973 9.24023 14.4251 8.99609 14.8809 8.99609H22.6055C23.0938 8.99609 23.3379 9.20768 23.3379 9.63086V10.7832C23.3379 11.2064 23.0938 11.418 22.6055 11.418H17.0488V14.8164H21.8047C22.293 14.8164 22.5371 15.028 22.5371 15.4512V16.6035C22.5371 17.0267 22.293 17.2383 21.8047 17.2383H17.0488V22.2676C17.0488 22.7559 16.821 23 16.3652 23H14.8809ZM26.0332 23C25.6426 23 25.4473 22.8047 25.4473 22.4141V13.332C25.4473 12.9414 25.6426 12.7461 26.0332 12.7461H27.5957C27.9863 12.7461 28.1816 12.9414 28.1816 13.332V22.4141C28.1816 22.8047 27.9863 23 27.5957 23H26.0332ZM26.0332 11.2422C25.6426 11.2422 25.4473 11.0469 25.4473 10.6562V9.40625C25.4473 9.01562 25.6426 8.82031 26.0332 8.82031H27.5957C27.9863 8.82031 28.1816 9.01562 28.1816 9.40625V10.6562C28.1816 11.0469 27.9863 11.2422 27.5957 11.2422H26.0332ZM31.4238 23C31.0332 23 30.8379 22.8047 30.8379 22.4141V10.8809C30.8379 10.5879 30.9062 10.321 31.043 10.0801L31.7949 8.76172C31.9382 8.51432 32.1074 8.39062 32.3027 8.39062H32.9863C33.377 8.39062 33.5723 8.58594 33.5723 8.97656V22.4141C33.5723 22.8047 33.377 23 32.9863 23H31.4238ZM35.6816 17.873C35.6816 16.2259 36.0918 14.9271 36.9121 13.9766C37.7389 13.026 38.9043 12.5508 40.4082 12.5508C42.153 12.5508 43.4486 13 44.2949 13.8984C45.1413 14.7969 45.5645 16.2422 45.5645 18.2344C45.5645 18.625 45.3822 18.8203 45.0176 18.8203H38.5723C38.6764 19.901 38.9434 20.5814 39.373 20.8613C39.8027 21.1413 40.3008 21.2812 40.8672 21.2812C41.4076 21.2812 41.821 21.2096 42.1074 21.0664C42.3939 20.9232 42.6348 20.7279 42.8301 20.4805C43.0514 20.194 43.3249 20.1484 43.6504 20.3438L44.627 20.9395C45.0111 21.1738 45.0664 21.4538 44.793 21.7793C44.3958 22.2546 43.9303 22.6094 43.3965 22.8438C42.8626 23.0781 42.0195 23.1953 40.8672 23.1953C38.9987 23.1953 37.6673 22.7201 36.873 21.7695C36.0788 20.819 35.6816 19.5202 35.6816 17.873ZM38.582 16.8672H42.8301C42.8301 16.1641 42.6543 15.5911 42.3027 15.1484C41.9512 14.6992 41.3913 14.4746 40.623 14.4746C40.0111 14.4746 39.526 14.6895 39.168 15.1191C38.8099 15.5423 38.6146 16.125 38.582 16.8672Z" fill="#D4D4D4"/>
<path d="M52.6416 22L56.6039 16.5L52.6416 11" stroke="#D4D4D4" stroke-width="3" stroke-linecap="round" stroke-linejoin="round"/>
</g>
<defs>
<clipPath id="clip0_76_87">
<rect width="70" height="34" rx="5" fill="white"/>
</clipPath>
</defs>
</svg>
