<svg width="22" height="27" viewBox="0 0 22 27" fill="none" xmlns="http://www.w3.org/2000/svg">
<path d="M3.82199 12.306L3.82201 12.306C4.0059 12.5801 4.13235 13.0102 4.13235 13.5V17.3571C4.13235 17.9276 4.59829 18.3929 5.17647 18.3929C5.75466 18.3929 6.22059 17.9276 6.22059 17.3571V13.5V5.78571C6.22059 5.29596 6.34703 4.8658 6.53094 4.59174C6.60594 4.47998 6.69069 4.38858 6.79738 4.32824C6.90748 4.26596 7.01747 4.25 7.11765 4.25C7.21782 4.25 7.32781 4.26596 7.43792 4.32824C7.54461 4.38858 7.62935 4.47998 7.70435 4.59174C7.88826 4.8658 8.01471 5.29596 8.01471 5.78571V12.2143C8.01471 12.7848 8.48064 13.25 9.05882 13.25C9.63703 13.25 10.1029 12.7848 10.1029 12.2143V5.78571V3.85714C10.1029 3.36743 10.2293 2.93722 10.4134 2.66309M3.82199 12.306L10.4134 2.66309M3.82199 12.306C3.74699 12.1943 3.66225 12.1029 3.55557 12.0425C3.44547 11.9803 3.33549 11.9643 3.23529 11.9643C3.1351 11.9643 3.02511 11.9803 2.91502 12.0425C2.80834 12.1029 2.7236 12.1943 2.6486 12.306L2.64858 12.306M3.82199 12.306L2.64858 12.306M10.4134 2.66309C10.4884 2.55138 10.5731 2.46001 10.6797 2.39967C10.7898 2.33739 10.8998 2.32143 11 2.32143C11.1002 2.32143 11.2102 2.33739 11.3203 2.39967C11.4269 2.46001 11.5116 2.55138 11.5866 2.66309M10.4134 2.66309H11.5866M11.5866 2.66309C11.5866 2.66313 11.5866 2.66318 11.5867 2.66322L11.379 2.80247L11.5866 2.66309ZM2.64858 12.306C2.46469 12.5801 2.33824 13.0102 2.33824 13.5M2.64858 12.306L2.33824 13.5M2.33824 13.5V18.6429M2.33824 13.5V18.6429M2.33824 18.6429C2.33824 20.0879 3.3199 21.5785 5.1092 22.7636M2.33824 18.6429L5.1092 22.7636M5.1092 22.7636C6.87576 23.9337 9.26164 24.6786 11.6471 24.6786M5.1092 22.7636L11.6471 24.6786M11.6471 24.6786C16.4779 24.6786 19.6618 21.7231 19.6618 18.6429M11.6471 24.6786L19.6618 18.6429M19.6618 18.6429V9.64286M19.6618 18.6429V9.64286M19.6618 9.64286C19.6618 9.15322 19.5354 8.72306 19.3514 8.44893M19.6618 9.64286L19.3514 8.44893M19.3514 8.44893C19.2764 8.33716 19.1917 8.24574 19.085 8.18539C18.9749 8.1231 18.8649 8.10714 18.7647 8.10714C18.6645 8.10714 18.5545 8.1231 18.4444 8.18539C18.3377 8.24574 18.253 8.33716 18.178 8.44893M18.178 8.44893C18.1781 8.44889 18.1781 8.44885 18.1781 8.44881L18.3857 8.58819L18.178 8.44893ZM13.6736 2.17915L13.7618 2.39874L13.9859 2.32272C14.2571 2.23069 14.5561 2.17857 14.8824 2.17857C15.9346 2.17857 16.7234 2.72271 17.2075 3.44395C17.6704 4.13397 17.8676 4.98943 17.8676 5.78571V5.85251V6.16131L18.1697 6.09703C18.3565 6.05727 18.5548 6.03571 18.7647 6.03571C19.817 6.03571 20.6058 6.57987 21.0898 7.30113C21.5527 7.99114 21.75 8.84659 21.75 9.64286V18.6429C21.75 23.2726 17.1746 26.75 11.6471 26.75C8.85604 26.75 6.06541 25.8877 3.94961 24.4864C1.85538 23.0993 0.25 21.0539 0.25 18.6429V13.5C0.25 12.7038 0.447234 11.8482 0.910231 11.1583L0.910236 11.1583C1.3942 10.437 2.18299 9.89286 3.23529 9.89286C3.44512 9.89286 3.64349 9.91441 3.83031 9.95417L4.13235 10.0185V9.70965V5.78571C4.13235 4.98942 4.32958 4.13397 4.79259 3.44397C5.27656 2.72273 6.06535 2.17857 7.11765 2.17857C7.44393 2.17857 7.74288 2.23069 8.01416 2.32272L8.23831 2.39876L8.32648 2.17909C8.41984 1.94651 8.5354 1.72336 8.67494 1.5154C9.15891 0.794158 9.94771 0.25 11 0.25C12.0523 0.25 12.8411 0.794129 13.3251 1.51536C13.4646 1.72332 13.5801 1.9465 13.6736 2.17915Z" fill="#ABABAB" stroke="#2E2E2E" stroke-width="0.5"/>
</svg>
