<svg width="27" height="30" viewBox="0 0 27 30" fill="none" xmlns="http://www.w3.org/2000/svg">
<path d="M22.1556 5.375C21.9485 5.375 21.7454 5.39284 21.5473 5.42723C21.0503 3.86809 19.6511 2.74153 18.0074 2.74153C17.6726 2.74153 17.3479 2.78831 17.0388 2.8759C16.3793 1.75086 15.2022 1 13.8593 1C12.5163 1 11.3341 1.75414 10.6756 2.88344C10.3696 2.79648 10.0481 2.75 9.7163 2.75C7.65778 2.75 5.9783 4.51641 5.9783 6.6875V13.3375C5.70659 13.2828 5.42867 13.25 5.14867 13.25C2.88896 13.25 1 15.175 1 17.6305C1 18.7401 1.3919 19.7917 2.11274 20.6082L6.3257 25.3791C8.35778 27.682 11.2356 29 14.217 29H15.9323C21.4244 29 25.8889 24.2914 25.8889 18.5V9.3125C25.8889 7.14141 24.2141 5.375 22.1556 5.375ZM23.4 18.5C23.4 22.8427 20.0509 26.375 15.98 26.375H14.217C11.9143 26.375 9.71474 25.3655 8.14519 23.5881L4.00948 18.9052C3.6879 18.5411 3.52176 18.063 3.52176 17.642C3.52176 16.4301 4.48258 15.9248 5.14732 15.9248C5.59117 15.9248 6.03399 16.1116 6.36169 16.4815L7.74717 18.0505C7.83407 18.1008 7.94296 18.1391 8.04667 18.1391C8.25957 18.1391 8.4648 17.9656 8.4648 17.7007V6.6875C8.4648 5.96289 9.02221 5.375 9.66258 5.375C10.3496 5.375 10.8604 5.96289 10.8604 6.6875V15C10.9556 15.4812 11.3289 15.875 11.7852 15.875C12.2415 15.875 12.5681 15.4833 12.5681 15.0492L12.6148 4.9375C12.6148 4.21289 13.1722 3.625 13.8126 3.625C14.4996 3.625 15.0104 4.21289 15.0104 4.9375V15C15.1037 15.4812 15.477 15.875 15.9333 15.875C16.3896 15.875 16.7624 15.4832 16.7624 15.0492L16.7628 6.72578C16.7628 6.00117 17.3202 5.41328 17.9606 5.41328C18.6477 5.41328 19.1584 6.00117 19.1584 6.72578V15.0492C19.2519 15.4812 19.6252 15.875 20.0815 15.875C20.5378 15.875 20.8644 15.4833 20.8644 15.0492V9.3125C20.8644 8.58789 21.4219 8 22.0622 8C22.7493 8 23.26 8.58789 23.26 9.3125L23.4 18.2527V18.5Z" fill="#ABABAB" stroke="#2E2E2E" stroke-width="0.75"/>
</svg>
