<svg width="22" height="30" viewBox="0 0 22 30" fill="none" xmlns="http://www.w3.org/2000/svg">
<path d="M0.354763 29.3087C0.127608 28.9986 0 28.5779 0 28.1393C0 27.7007 0.127608 27.2801 0.354763 26.9699L19.7416 0.504965C19.8534 0.346985 19.9871 0.220975 20.1349 0.134288C20.2827 0.0476003 20.4417 0.00197093 20.6026 6.24518e-05C20.7635 -0.00184603 20.9231 0.0400045 21.072 0.123172C21.2209 0.20634 21.3562 0.329159 21.4699 0.484463C21.5837 0.639767 21.6737 0.824445 21.7346 1.02772C21.7955 1.231 21.8262 1.44881 21.8248 1.66843C21.8234 1.88806 21.79 2.1051 21.7265 2.3069C21.663 2.5087 21.5706 2.69122 21.4549 2.8438L2.06807 29.3087C1.84085 29.6188 1.53271 29.793 1.21142 29.793C0.890125 29.793 0.581986 29.6188 0.354763 29.3087Z" fill="#C7C7C7"/>
<path d="M0.354763 29.3087C0.127608 28.9986 0 28.5779 0 28.1393C0 27.7007 0.127608 27.2801 0.354763 26.9699L19.7416 0.504965C19.8534 0.346985 19.9871 0.220975 20.1349 0.134288C20.2827 0.0476003 20.4417 0.00197093 20.6026 6.24518e-05C20.7635 -0.00184603 20.9231 0.0400045 21.072 0.123172C21.2209 0.20634 21.3562 0.329159 21.4699 0.484463C21.5837 0.639767 21.6737 0.824445 21.7346 1.02772C21.7955 1.231 21.8262 1.44881 21.8248 1.66843C21.8234 1.88806 21.79 2.1051 21.7265 2.3069C21.663 2.5087 21.5706 2.69122 21.4549 2.8438L2.06807 29.3087C1.84085 29.6188 1.53271 29.793 1.21142 29.793C0.890125 29.793 0.581986 29.6188 0.354763 29.3087Z" stroke="#C7C7C7"/>
</svg>
