<svg width="34" height="34" viewBox="0 0 34 34" fill="none" xmlns="http://www.w3.org/2000/svg">
<mask id="path-1-outside-1_75_27" maskUnits="userSpaceOnUse" x="-0.00195312" y="-0.00195312" width="34" height="34" fill="black">
<rect fill="white" x="-0.00195312" y="-0.00195312" width="34" height="34"/>
<path fill-rule="evenodd" clip-rule="evenodd" d="M16.2918 1.29183C16.3847 1.19871 16.4951 1.12482 16.6166 1.07441C16.7381 1.024 16.8683 0.998047 16.9998 0.998047C17.1314 0.998047 17.2616 1.024 17.3831 1.07441C17.5046 1.12482 17.6149 1.19871 17.7078 1.29183L21.7078 5.29183C21.8008 5.38481 21.8746 5.49519 21.9249 5.61667C21.9752 5.73815 22.0011 5.86835 22.0011 5.99983C22.0011 6.13132 21.9752 6.26152 21.9249 6.383C21.8746 6.50448 21.8008 6.61486 21.7078 6.70783C21.6149 6.80081 21.5045 6.87456 21.383 6.92488C21.2615 6.9752 21.1313 7.0011 20.9998 7.0011C20.8683 7.0011 20.7381 6.9752 20.6167 6.92488C20.4952 6.87456 20.3848 6.80081 20.2918 6.70783L17.9998 4.41383V11.9998C17.9998 12.2651 17.8945 12.5194 17.7069 12.7069C17.5194 12.8945 17.2651 12.9998 16.9998 12.9998C16.7346 12.9998 16.4803 12.8945 16.2927 12.7069C16.1052 12.5194 15.9998 12.2651 15.9998 11.9998V4.41383L13.7078 6.70783C13.5201 6.89561 13.2654 7.0011 12.9998 7.0011C12.7343 7.0011 12.4796 6.89561 12.2918 6.70783C12.1041 6.52006 11.9986 6.26539 11.9986 5.99983C11.9986 5.73428 12.1041 5.47961 12.2918 5.29183L16.2918 1.29183ZM16.9998 20.9998C17.2651 20.9998 17.5194 21.1052 17.7069 21.2927C17.8945 21.4803 17.9998 21.7346 17.9998 21.9998V29.5858L20.2918 27.2918C20.4796 27.1041 20.7343 26.9986 20.9998 26.9986C21.2654 26.9986 21.5201 27.1041 21.7078 27.2918C21.8956 27.4796 22.0011 27.7343 22.0011 27.9998C22.0011 28.2654 21.8956 28.5201 21.7078 28.7078L17.7078 32.7078C17.6149 32.801 17.5046 32.8748 17.3831 32.9253C17.2616 32.9757 17.1314 33.0016 16.9998 33.0016C16.8683 33.0016 16.7381 32.9757 16.6166 32.9253C16.4951 32.8748 16.3847 32.801 16.2918 32.7078L12.2918 28.7078C12.1989 28.6149 12.1251 28.5045 12.0748 28.383C12.0245 28.2615 11.9986 28.1313 11.9986 27.9998C11.9986 27.8683 12.0245 27.7381 12.0748 27.6167C12.1251 27.4952 12.1989 27.3848 12.2918 27.2918C12.4796 27.1041 12.7343 26.9986 12.9998 26.9986C13.1313 26.9986 13.2615 27.0245 13.383 27.0748C13.5045 27.1251 13.6149 27.1989 13.7078 27.2918L15.9998 29.5858V21.9998C15.9998 21.7346 16.1052 21.4803 16.2927 21.2927C16.4803 21.1052 16.7346 20.9998 16.9998 20.9998ZM1.29183 17.7078C1.19871 17.6149 1.12482 17.5046 1.07441 17.3831C1.024 17.2616 0.998047 17.1314 0.998047 16.9998C0.998047 16.8683 1.024 16.7381 1.07441 16.6166C1.12482 16.4951 1.19871 16.3847 1.29183 16.2918L5.29183 12.2918C5.47961 12.1041 5.73428 11.9986 5.99983 11.9986C6.26539 11.9986 6.52006 12.1041 6.70783 12.2918C6.89561 12.4796 7.0011 12.7343 7.0011 12.9998C7.0011 13.2654 6.89561 13.5201 6.70783 13.7078L4.41383 15.9998H11.9998C12.2651 15.9998 12.5194 16.1052 12.7069 16.2927C12.8945 16.4803 12.9998 16.7346 12.9998 16.9998C12.9998 17.2651 12.8945 17.5194 12.7069 17.7069C12.5194 17.8945 12.2651 17.9998 11.9998 17.9998H4.41383L6.70783 20.2918C6.89561 20.4796 7.0011 20.7343 7.0011 20.9998C7.0011 21.2654 6.89561 21.5201 6.70783 21.7078C6.52006 21.8956 6.26539 22.0011 5.99983 22.0011C5.73428 22.0011 5.47961 21.8956 5.29183 21.7078L1.29183 17.7078ZM20.9998 16.9998C20.9998 16.7346 21.1052 16.4803 21.2927 16.2927C21.4803 16.1052 21.7346 15.9998 21.9998 15.9998H29.5858L27.2918 13.7078C27.1989 13.6149 27.1251 13.5045 27.0748 13.383C27.0245 13.2615 26.9986 13.1313 26.9986 12.9998C26.9986 12.8683 27.0245 12.7381 27.0748 12.6167C27.1251 12.4952 27.1989 12.3848 27.2918 12.2918C27.4796 12.1041 27.7343 11.9986 27.9998 11.9986C28.1313 11.9986 28.2615 12.0245 28.383 12.0748C28.5045 12.1251 28.6149 12.1989 28.7078 12.2918L32.7078 16.2918C32.801 16.3847 32.8748 16.4951 32.9253 16.6166C32.9757 16.7381 33.0016 16.8683 33.0016 16.9998C33.0016 17.1314 32.9757 17.2616 32.9253 17.3831C32.8748 17.5046 32.801 17.6149 32.7078 17.7078L28.7078 21.7078C28.6149 21.8008 28.5045 21.8746 28.383 21.9249C28.2615 21.9752 28.1313 22.0011 27.9998 22.0011C27.8683 22.0011 27.7381 21.9752 27.6167 21.9249C27.4952 21.8746 27.3848 21.8008 27.2918 21.7078C27.1989 21.6149 27.1251 21.5045 27.0748 21.383C27.0245 21.2615 26.9986 21.1313 26.9986 20.9998C26.9986 20.8683 27.0245 20.7381 27.0748 20.6167C27.1251 20.4952 27.1989 20.3848 27.2918 20.2918L29.5858 17.9998H21.9998C21.7346 17.9998 21.4803 17.8945 21.2927 17.7069C21.1052 17.5194 20.9998 17.2651 20.9998 16.9998Z"/>
</mask>
<path fill-rule="evenodd" clip-rule="evenodd" d="M16.2918 1.29183C16.3847 1.19871 16.4951 1.12482 16.6166 1.07441C16.7381 1.024 16.8683 0.998047 16.9998 0.998047C17.1314 0.998047 17.2616 1.024 17.3831 1.07441C17.5046 1.12482 17.6149 1.19871 17.7078 1.29183L21.7078 5.29183C21.8008 5.38481 21.8746 5.49519 21.9249 5.61667C21.9752 5.73815 22.0011 5.86835 22.0011 5.99983C22.0011 6.13132 21.9752 6.26152 21.9249 6.383C21.8746 6.50448 21.8008 6.61486 21.7078 6.70783C21.6149 6.80081 21.5045 6.87456 21.383 6.92488C21.2615 6.9752 21.1313 7.0011 20.9998 7.0011C20.8683 7.0011 20.7381 6.9752 20.6167 6.92488C20.4952 6.87456 20.3848 6.80081 20.2918 6.70783L17.9998 4.41383V11.9998C17.9998 12.2651 17.8945 12.5194 17.7069 12.7069C17.5194 12.8945 17.2651 12.9998 16.9998 12.9998C16.7346 12.9998 16.4803 12.8945 16.2927 12.7069C16.1052 12.5194 15.9998 12.2651 15.9998 11.9998V4.41383L13.7078 6.70783C13.5201 6.89561 13.2654 7.0011 12.9998 7.0011C12.7343 7.0011 12.4796 6.89561 12.2918 6.70783C12.1041 6.52006 11.9986 6.26539 11.9986 5.99983C11.9986 5.73428 12.1041 5.47961 12.2918 5.29183L16.2918 1.29183ZM16.9998 20.9998C17.2651 20.9998 17.5194 21.1052 17.7069 21.2927C17.8945 21.4803 17.9998 21.7346 17.9998 21.9998V29.5858L20.2918 27.2918C20.4796 27.1041 20.7343 26.9986 20.9998 26.9986C21.2654 26.9986 21.5201 27.1041 21.7078 27.2918C21.8956 27.4796 22.0011 27.7343 22.0011 27.9998C22.0011 28.2654 21.8956 28.5201 21.7078 28.7078L17.7078 32.7078C17.6149 32.801 17.5046 32.8748 17.3831 32.9253C17.2616 32.9757 17.1314 33.0016 16.9998 33.0016C16.8683 33.0016 16.7381 32.9757 16.6166 32.9253C16.4951 32.8748 16.3847 32.801 16.2918 32.7078L12.2918 28.7078C12.1989 28.6149 12.1251 28.5045 12.0748 28.383C12.0245 28.2615 11.9986 28.1313 11.9986 27.9998C11.9986 27.8683 12.0245 27.7381 12.0748 27.6167C12.1251 27.4952 12.1989 27.3848 12.2918 27.2918C12.4796 27.1041 12.7343 26.9986 12.9998 26.9986C13.1313 26.9986 13.2615 27.0245 13.383 27.0748C13.5045 27.1251 13.6149 27.1989 13.7078 27.2918L15.9998 29.5858V21.9998C15.9998 21.7346 16.1052 21.4803 16.2927 21.2927C16.4803 21.1052 16.7346 20.9998 16.9998 20.9998ZM1.29183 17.7078C1.19871 17.6149 1.12482 17.5046 1.07441 17.3831C1.024 17.2616 0.998047 17.1314 0.998047 16.9998C0.998047 16.8683 1.024 16.7381 1.07441 16.6166C1.12482 16.4951 1.19871 16.3847 1.29183 16.2918L5.29183 12.2918C5.47961 12.1041 5.73428 11.9986 5.99983 11.9986C6.26539 11.9986 6.52006 12.1041 6.70783 12.2918C6.89561 12.4796 7.0011 12.7343 7.0011 12.9998C7.0011 13.2654 6.89561 13.5201 6.70783 13.7078L4.41383 15.9998H11.9998C12.2651 15.9998 12.5194 16.1052 12.7069 16.2927C12.8945 16.4803 12.9998 16.7346 12.9998 16.9998C12.9998 17.2651 12.8945 17.5194 12.7069 17.7069C12.5194 17.8945 12.2651 17.9998 11.9998 17.9998H4.41383L6.70783 20.2918C6.89561 20.4796 7.0011 20.7343 7.0011 20.9998C7.0011 21.2654 6.89561 21.5201 6.70783 21.7078C6.52006 21.8956 6.26539 22.0011 5.99983 22.0011C5.73428 22.0011 5.47961 21.8956 5.29183 21.7078L1.29183 17.7078ZM20.9998 16.9998C20.9998 16.7346 21.1052 16.4803 21.2927 16.2927C21.4803 16.1052 21.7346 15.9998 21.9998 15.9998H29.5858L27.2918 13.7078C27.1989 13.6149 27.1251 13.5045 27.0748 13.383C27.0245 13.2615 26.9986 13.1313 26.9986 12.9998C26.9986 12.8683 27.0245 12.7381 27.0748 12.6167C27.1251 12.4952 27.1989 12.3848 27.2918 12.2918C27.4796 12.1041 27.7343 11.9986 27.9998 11.9986C28.1313 11.9986 28.2615 12.0245 28.383 12.0748C28.5045 12.1251 28.6149 12.1989 28.7078 12.2918L32.7078 16.2918C32.801 16.3847 32.8748 16.4951 32.9253 16.6166C32.9757 16.7381 33.0016 16.8683 33.0016 16.9998C33.0016 17.1314 32.9757 17.2616 32.9253 17.3831C32.8748 17.5046 32.801 17.6149 32.7078 17.7078L28.7078 21.7078C28.6149 21.8008 28.5045 21.8746 28.383 21.9249C28.2615 21.9752 28.1313 22.0011 27.9998 22.0011C27.8683 22.0011 27.7381 21.9752 27.6167 21.9249C27.4952 21.8746 27.3848 21.8008 27.2918 21.7078C27.1989 21.6149 27.1251 21.5045 27.0748 21.383C27.0245 21.2615 26.9986 21.1313 26.9986 20.9998C26.9986 20.8683 27.0245 20.7381 27.0748 20.6167C27.1251 20.4952 27.1989 20.3848 27.2918 20.2918L29.5858 17.9998H21.9998C21.7346 17.9998 21.4803 17.8945 21.2927 17.7069C21.1052 17.5194 20.9998 17.2651 20.9998 16.9998Z" fill="#C7C7C7"/>
<path fill-rule="evenodd" clip-rule="evenodd" d="M16.2918 1.29183C16.3847 1.19871 16.4951 1.12482 16.6166 1.07441C16.7381 1.024 16.8683 0.998047 16.9998 0.998047C17.1314 0.998047 17.2616 1.024 17.3831 1.07441C17.5046 1.12482 17.6149 1.19871 17.7078 1.29183L21.7078 5.29183C21.8008 5.38481 21.8746 5.49519 21.9249 5.61667C21.9752 5.73815 22.0011 5.86835 22.0011 5.99983C22.0011 6.13132 21.9752 6.26152 21.9249 6.383C21.8746 6.50448 21.8008 6.61486 21.7078 6.70783C21.6149 6.80081 21.5045 6.87456 21.383 6.92488C21.2615 6.9752 21.1313 7.0011 20.9998 7.0011C20.8683 7.0011 20.7381 6.9752 20.6167 6.92488C20.4952 6.87456 20.3848 6.80081 20.2918 6.70783L17.9998 4.41383V11.9998C17.9998 12.2651 17.8945 12.5194 17.7069 12.7069C17.5194 12.8945 17.2651 12.9998 16.9998 12.9998C16.7346 12.9998 16.4803 12.8945 16.2927 12.7069C16.1052 12.5194 15.9998 12.2651 15.9998 11.9998V4.41383L13.7078 6.70783C13.5201 6.89561 13.2654 7.0011 12.9998 7.0011C12.7343 7.0011 12.4796 6.89561 12.2918 6.70783C12.1041 6.52006 11.9986 6.26539 11.9986 5.99983C11.9986 5.73428 12.1041 5.47961 12.2918 5.29183L16.2918 1.29183ZM16.9998 20.9998C17.2651 20.9998 17.5194 21.1052 17.7069 21.2927C17.8945 21.4803 17.9998 21.7346 17.9998 21.9998V29.5858L20.2918 27.2918C20.4796 27.1041 20.7343 26.9986 20.9998 26.9986C21.2654 26.9986 21.5201 27.1041 21.7078 27.2918C21.8956 27.4796 22.0011 27.7343 22.0011 27.9998C22.0011 28.2654 21.8956 28.5201 21.7078 28.7078L17.7078 32.7078C17.6149 32.801 17.5046 32.8748 17.3831 32.9253C17.2616 32.9757 17.1314 33.0016 16.9998 33.0016C16.8683 33.0016 16.7381 32.9757 16.6166 32.9253C16.4951 32.8748 16.3847 32.801 16.2918 32.7078L12.2918 28.7078C12.1989 28.6149 12.1251 28.5045 12.0748 28.383C12.0245 28.2615 11.9986 28.1313 11.9986 27.9998C11.9986 27.8683 12.0245 27.7381 12.0748 27.6167C12.1251 27.4952 12.1989 27.3848 12.2918 27.2918C12.4796 27.1041 12.7343 26.9986 12.9998 26.9986C13.1313 26.9986 13.2615 27.0245 13.383 27.0748C13.5045 27.1251 13.6149 27.1989 13.7078 27.2918L15.9998 29.5858V21.9998C15.9998 21.7346 16.1052 21.4803 16.2927 21.2927C16.4803 21.1052 16.7346 20.9998 16.9998 20.9998ZM1.29183 17.7078C1.19871 17.6149 1.12482 17.5046 1.07441 17.3831C1.024 17.2616 0.998047 17.1314 0.998047 16.9998C0.998047 16.8683 1.024 16.7381 1.07441 16.6166C1.12482 16.4951 1.19871 16.3847 1.29183 16.2918L5.29183 12.2918C5.47961 12.1041 5.73428 11.9986 5.99983 11.9986C6.26539 11.9986 6.52006 12.1041 6.70783 12.2918C6.89561 12.4796 7.0011 12.7343 7.0011 12.9998C7.0011 13.2654 6.89561 13.5201 6.70783 13.7078L4.41383 15.9998H11.9998C12.2651 15.9998 12.5194 16.1052 12.7069 16.2927C12.8945 16.4803 12.9998 16.7346 12.9998 16.9998C12.9998 17.2651 12.8945 17.5194 12.7069 17.7069C12.5194 17.8945 12.2651 17.9998 11.9998 17.9998H4.41383L6.70783 20.2918C6.89561 20.4796 7.0011 20.7343 7.0011 20.9998C7.0011 21.2654 6.89561 21.5201 6.70783 21.7078C6.52006 21.8956 6.26539 22.0011 5.99983 22.0011C5.73428 22.0011 5.47961 21.8956 5.29183 21.7078L1.29183 17.7078ZM20.9998 16.9998C20.9998 16.7346 21.1052 16.4803 21.2927 16.2927C21.4803 16.1052 21.7346 15.9998 21.9998 15.9998H29.5858L27.2918 13.7078C27.1989 13.6149 27.1251 13.5045 27.0748 13.383C27.0245 13.2615 26.9986 13.1313 26.9986 12.9998C26.9986 12.8683 27.0245 12.7381 27.0748 12.6167C27.1251 12.4952 27.1989 12.3848 27.2918 12.2918C27.4796 12.1041 27.7343 11.9986 27.9998 11.9986C28.1313 11.9986 28.2615 12.0245 28.383 12.0748C28.5045 12.1251 28.6149 12.1989 28.7078 12.2918L32.7078 16.2918C32.801 16.3847 32.8748 16.4951 32.9253 16.6166C32.9757 16.7381 33.0016 16.8683 33.0016 16.9998C33.0016 17.1314 32.9757 17.2616 32.9253 17.3831C32.8748 17.5046 32.801 17.6149 32.7078 17.7078L28.7078 21.7078C28.6149 21.8008 28.5045 21.8746 28.383 21.9249C28.2615 21.9752 28.1313 22.0011 27.9998 22.0011C27.8683 22.0011 27.7381 21.9752 27.6167 21.9249C27.4952 21.8746 27.3848 21.8008 27.2918 21.7078C27.1989 21.6149 27.1251 21.5045 27.0748 21.383C27.0245 21.2615 26.9986 21.1313 26.9986 20.9998C26.9986 20.8683 27.0245 20.7381 27.0748 20.6167C27.1251 20.4952 27.1989 20.3848 27.2918 20.2918L29.5858 17.9998H21.9998C21.7346 17.9998 21.4803 17.8945 21.2927 17.7069C21.1052 17.5194 20.9998 17.2651 20.9998 16.9998Z" stroke="#C7C7C7" mask="url(#path-1-outside-1_75_27)"/>
</svg>
