<svg width="41" height="40" viewBox="0 0 41 40" fill="none" xmlns="http://www.w3.org/2000/svg">
<path d="M19.625 10.375C21.9032 10.375 23.75 8.52817 23.75 6.25C23.75 3.97183 21.9032 2.125 19.625 2.125C17.3468 2.125 15.5 3.97183 15.5 6.25C15.5 8.52817 17.3468 10.375 19.625 10.375Z" stroke="#C7C7C7" stroke-width="3" stroke-linecap="round" stroke-linejoin="round"/>
<path d="M5.875 22.75C8.15317 22.75 10 20.9032 10 18.625C10 16.3468 8.15317 14.5 5.875 14.5C3.59683 14.5 1.75 16.3468 1.75 18.625C1.75 20.9032 3.59683 22.75 5.875 22.75Z" stroke="#C7C7C7" stroke-width="3" stroke-linecap="round" stroke-linejoin="round"/>
<path d="M26.5 37.875C28.7782 37.875 30.625 36.0282 30.625 33.75C30.625 31.4718 28.7782 29.625 26.5 29.625C24.2218 29.625 22.375 31.4718 22.375 33.75C22.375 36.0282 24.2218 37.875 26.5 37.875Z" stroke="#C7C7C7" stroke-width="3" stroke-linecap="round" stroke-linejoin="round"/>
<path d="M34.75 14.5C37.0282 14.5 38.875 12.6532 38.875 10.375C38.875 8.09683 37.0282 6.25 34.75 6.25C32.4718 6.25 30.625 8.09683 30.625 10.375C30.625 12.6532 32.4718 14.5 34.75 14.5Z" stroke="#C7C7C7" stroke-width="3" stroke-linecap="round" stroke-linejoin="round"/>
<path d="M30.7623 9.29214L23.6123 7.33276" stroke="#C7C7C7" stroke-width="3" stroke-linecap="round" stroke-linejoin="round"/>
<path d="M16.5658 9.01709L8.93457 15.8577" stroke="#C7C7C7" stroke-width="3" stroke-linecap="round" stroke-linejoin="round"/>
<path d="M9.20898 21.0657L23.1652 31.3094" stroke="#C7C7C7" stroke-width="3" stroke-linecap="round" stroke-linejoin="round"/>
<path d="M27.875 29.8655L33.375 14.2593" stroke="#C7C7C7" stroke-width="3" stroke-linecap="round" stroke-linejoin="round"/>
</svg>
