<svg width="34" height="47" viewBox="0 0 34 47" fill="none" xmlns="http://www.w3.org/2000/svg">
<path d="M32.2721 26.6559H18.5848V21.4338H27.5576C28.3971 21.4338 29.0784 20.4561 29.0784 19.2515V12.6265C29.0784 11.4218 28.3971 10.4441 27.5576 10.4441H18.5848V2.18235C18.5848 0.977694 17.9034 0 17.0639 0C16.2244 0 15.5431 0.977694 15.5431 2.18235V10.4441H6.57031C5.73082 10.4441 5.04949 11.4218 5.04949 12.6265V19.2515C5.04949 20.4561 5.73082 21.4338 6.57031 21.4338H15.5431V26.6559H1.85578C1.01629 26.6559 0.334961 27.6336 0.334961 28.8382V35.4632C0.334961 36.6679 1.01629 37.6456 1.85578 37.6456H15.5431V44.1147C15.5431 45.3194 16.2244 46.2971 17.0639 46.2971C17.9034 46.2971 18.5848 45.3194 18.5848 44.1147C18.5848 42.91 18.5848 37.6456 18.5848 37.6456H32.2721C33.1116 37.6456 33.7929 36.6679 33.7929 35.4632V28.8382C33.7929 27.6336 33.1116 26.6559 32.2721 26.6559Z" fill="#ABABAB"/>
</svg>
