<svg width="29" height="28" viewBox="0 0 29 28" fill="none" xmlns="http://www.w3.org/2000/svg">
<path fill-rule="evenodd" clip-rule="evenodd" d="M12.0439 20.9998C13.3079 20.9998 14.5595 20.7508 15.7273 20.2671C16.895 19.7834 17.9561 19.0744 18.8498 18.1807C19.7436 17.2869 20.4526 16.2259 20.9363 15.0581C21.42 13.8904 21.6689 12.6388 21.6689 11.3749C21.6689 10.1109 21.42 8.85933 20.9363 7.69158C20.4526 6.52384 19.7436 5.4628 18.8498 4.56904C17.9561 3.67529 16.895 2.96633 15.7273 2.48263C14.5595 1.99893 13.3079 1.74998 12.0439 1.74998C9.49124 1.74998 7.04308 2.76403 5.23804 4.56904C3.43301 6.37406 2.41895 8.82219 2.41895 11.3749C2.41895 13.9275 3.43301 16.3757 5.23804 18.1807C7.04308 19.9857 9.49124 20.9998 12.0439 20.9998ZM23.4189 11.3749C23.4189 14.3917 22.2205 17.2849 20.0873 19.4181C17.9541 21.5513 15.0608 22.7497 12.0439 22.7497C9.02711 22.7497 6.13383 21.5513 4.00061 19.4181C1.86738 17.2849 0.668945 14.3917 0.668945 11.3749C0.668945 8.35806 1.86738 5.46482 4.00061 3.33162C6.13383 1.19842 9.02711 0 12.0439 0C15.0608 0 17.9541 1.19842 20.0873 3.33162C22.2205 5.46482 23.4189 8.35806 23.4189 11.3749Z" fill="#ABABAB"/>
<path d="M18.7705 20.5483C18.8218 20.6183 18.879 20.6854 18.942 20.7496L25.6795 27.487C26.0076 27.8154 26.4528 27.9999 26.917 28.0001C27.3812 28.0002 27.8265 27.816 28.1549 27.4879C28.4833 27.1597 28.6678 26.7146 28.668 26.2504C28.6682 25.7862 28.4839 25.3409 28.1558 25.0125L21.4183 18.2751C21.3557 18.2117 21.2884 18.1532 21.217 18.1001C20.5313 19.0368 19.7062 19.863 18.7705 20.5501V20.5483Z" fill="#ABABAB"/>
<path fill-rule="evenodd" clip-rule="evenodd" d="M5.91895 11.3749C5.91895 11.1428 6.01113 10.9202 6.17523 10.7562C6.33932 10.5921 6.56188 10.4999 6.79395 10.4999H17.2939C17.526 10.4999 17.7486 10.5921 17.9127 10.7562C18.0768 10.9202 18.1689 11.1428 18.1689 11.3749C18.1689 11.6069 18.0768 11.8295 17.9127 11.9936C17.7486 12.1577 17.526 12.2499 17.2939 12.2499H6.79395C6.56188 12.2499 6.33932 12.1577 6.17523 11.9936C6.01113 11.8295 5.91895 11.6069 5.91895 11.3749Z" fill="#ABABAB"/>
</svg>
