<svg width="29" height="28" viewBox="0 0 29 28" fill="none" xmlns="http://www.w3.org/2000/svg">
<path fill-rule="evenodd" clip-rule="evenodd" d="M12.0439 21C13.3079 21 14.5595 20.751 15.7273 20.2673C16.895 19.7836 17.9561 19.0747 18.8498 18.1809C19.7436 17.2871 20.4526 16.2261 20.9363 15.0583C21.42 13.8906 21.6689 12.639 21.6689 11.375C21.6689 10.111 21.42 8.85943 20.9363 7.69167C20.4526 6.52391 19.7436 5.46286 18.8498 4.5691C17.9561 3.67533 16.895 2.96636 15.7273 2.48266C14.5595 1.99896 13.3079 1.75 12.0439 1.75C9.49124 1.75 7.04308 2.76406 5.23804 4.5691C3.43301 6.37414 2.41895 8.82229 2.41895 11.375C2.41895 13.9277 3.43301 16.3759 5.23804 18.1809C7.04308 19.9859 9.49124 21 12.0439 21ZM23.4189 11.375C23.4189 14.3918 22.2205 17.2851 20.0873 19.4183C17.9541 21.5516 15.0608 22.75 12.0439 22.75C9.02711 22.75 6.13383 21.5516 4.00061 19.4183C1.86738 17.2851 0.668945 14.3918 0.668945 11.375C0.668945 8.35816 1.86738 5.46489 4.00061 3.33166C6.13383 1.19843 9.02711 0 12.0439 0C15.0608 0 17.9541 1.19843 20.0873 3.33166C22.2205 5.46489 23.4189 8.35816 23.4189 11.375Z" fill="#ABABAB"/>
<path d="M18.7705 20.5485C18.8218 20.6185 18.879 20.6856 18.942 20.7497L25.6795 27.4872C26.0076 27.8156 26.4528 28.0002 26.917 28.0003C27.3812 28.0005 27.8265 27.8162 28.1549 27.4881C28.4833 27.16 28.6678 26.7148 28.668 26.2506C28.6681 25.7864 28.4839 25.3411 28.1558 25.0127L21.4183 18.2752C21.3557 18.2119 21.2884 18.1533 21.217 18.1002C20.5313 19.0369 19.7062 19.8632 18.7705 20.5502V20.5485Z" fill="#ABABAB"/>
<path fill-rule="evenodd" clip-rule="evenodd" d="M12.0439 5.25C12.276 5.25 12.4986 5.34219 12.6627 5.50628C12.8268 5.67038 12.9189 5.89294 12.9189 6.125V10.5H17.2939C17.526 10.5 17.7486 10.5922 17.9127 10.7563C18.0768 10.9204 18.1689 11.1429 18.1689 11.375C18.1689 11.6071 18.0768 11.8296 17.9127 11.9937C17.7486 12.1578 17.526 12.25 17.2939 12.25H12.9189V16.625C12.9189 16.8571 12.8268 17.0796 12.6627 17.2437C12.4986 17.4078 12.276 17.5 12.0439 17.5C11.8119 17.5 11.5893 17.4078 11.4252 17.2437C11.2611 17.0796 11.1689 16.8571 11.1689 16.625V12.25H6.79395C6.56188 12.25 6.33932 12.1578 6.17523 11.9937C6.01113 11.8296 5.91895 11.6071 5.91895 11.375C5.91895 11.1429 6.01113 10.9204 6.17523 10.7563C6.33932 10.5922 6.56188 10.5 6.79395 10.5H11.1689V6.125C11.1689 5.89294 11.2611 5.67038 11.4252 5.50628C11.5893 5.34219 11.8119 5.25 12.0439 5.25Z" fill="#ABABAB"/>
</svg>
