<svg width="46" height="35" viewBox="0 0 46 35" fill="none" xmlns="http://www.w3.org/2000/svg">
<path d="M19.2123 33.0031L19.2123 18.9737L24.307 18.9737L24.307 28.1708C24.307 29.0312 25.2609 29.7296 26.4362 29.7296L32.8997 29.7296C34.0749 29.7296 35.0288 29.0312 35.0288 28.1708L35.0288 18.9737L43.0891 18.9737C44.2644 18.9737 45.2183 18.2754 45.2183 17.4149C45.2183 16.5544 44.2644 15.8561 43.0891 15.8561L35.0288 15.8561L35.0288 6.659C35.0288 5.79853 34.0749 5.10017 32.8997 5.10017L26.4362 5.10017C25.2609 5.10017 24.307 5.79853 24.307 6.659L24.307 15.8561L19.2123 15.8561L19.2123 1.82664C19.2123 0.966174 18.2585 0.267821 17.0832 0.267821L10.6197 0.267821C9.44442 0.267821 8.49057 0.966174 8.49057 1.82664L8.49057 15.8561L2.17918 15.8561C1.0039 15.8561 0.0500405 16.5544 0.0500405 17.4149C0.0500404 18.2753 1.0039 18.9737 2.17918 18.9737C3.35447 18.9737 8.49057 18.9737 8.49057 18.9737L8.49057 33.0031C8.49057 33.8636 9.44442 34.5619 10.6197 34.5619L17.0832 34.5619C18.2585 34.5619 19.2123 33.8636 19.2123 33.0031Z" fill="#ABABAB"/>
</svg>
