<svg width="28" height="28" viewBox="0 0 28 28" fill="none" xmlns="http://www.w3.org/2000/svg">
<path d="M21.0709 10.6988L25.3135 14.9415C28.1774 17.8053 28.1774 22.4485 25.3135 25.3124C22.4497 28.1763 17.8065 28.1763 14.9426 25.3124L13.5285 23.8981C12.7474 23.1171 12.7474 21.8508 13.5285 21.0697C14.3094 20.2887 15.5758 20.2887 16.3569 21.0697L17.771 22.484C19.0727 23.7857 21.1834 23.7857 22.4851 22.484C23.7869 21.1821 23.7869 19.0716 22.4851 17.7699L18.2425 13.5272C17.2759 12.5607 15.8634 12.3119 14.6673 12.7805C14.4523 12.8648 14.2515 12.9539 14.062 13.0415L13.4442 13.3302C12.6174 13.7042 11.9804 13.8649 11.1713 13.0559C10.0085 11.8931 10.3102 10.8195 11.7282 9.84154C14.5853 7.87118 18.529 8.15694 21.0709 10.6988ZM13.0569 2.68499L14.4711 4.09922C15.2521 4.88026 15.2521 6.14659 14.4711 6.92764C13.6901 7.70868 12.4237 7.70868 11.6426 6.92764L10.2284 5.51343C8.92669 4.21167 6.81614 4.21167 5.51439 5.51343C4.21265 6.81518 4.21265 8.92572 5.51439 10.2275L9.75703 14.4701C10.7236 15.4367 12.1361 15.6856 13.3322 15.2168C13.5472 15.1325 13.748 15.0435 13.9374 14.956L14.5553 14.6673C15.3821 14.2931 16.019 14.1324 16.8282 14.9416C17.991 16.1043 17.6893 17.1779 16.2713 18.1559C13.4142 20.1261 9.4705 19.8404 6.92861 17.2985L2.68597 13.0559C-0.177874 10.1921 -0.177874 5.54884 2.68597 2.68499C5.54981 -0.178851 10.193 -0.178851 13.0569 2.68499Z" fill="#9E9E9E"/>
</svg>
