<svg width="36" height="33" viewBox="0 0 36 33" fill="none" xmlns="http://www.w3.org/2000/svg">
<path fill-rule="evenodd" clip-rule="evenodd" d="M33.3408 2.6326C35.9473 4.99298 35.9473 8.79195 35.9473 16.3899C35.9473 23.9878 35.9473 27.7869 33.3408 30.1472C30.7343 32.5076 26.5392 32.5076 18.149 32.5076C9.75885 32.5076 5.56362 32.5076 2.95723 30.1472C0.350674 27.7869 0.350674 23.988 0.350674 16.3899C0.350674 8.792 0.350674 4.99298 2.95723 2.6326C5.56362 0.272217 9.75885 0.272217 18.149 0.272217C26.5392 0.272217 30.7343 0.272217 33.3408 2.6326ZM23.028 9.90085C22.4863 9.44802 22.4525 8.68325 22.9526 8.19268C23.4526 7.70212 24.2971 7.67153 24.8388 8.12435L28.8434 11.4719C29.1172 11.7007 29.2729 12.0227 29.2729 12.3601C29.2729 12.6975 29.1172 13.0195 28.8434 13.2484L24.8388 16.5959C24.2971 17.0488 23.4526 17.0182 22.9526 16.5276C22.4525 16.0369 22.4863 15.2721 23.028 14.8194L24.5239 13.569H14.5208C13.2765 13.569 12.4412 13.5703 11.8035 13.6277C11.187 13.6829 10.9008 13.7809 10.7116 13.8918C10.4473 14.0466 10.2221 14.2504 10.0513 14.4898C9.929 14.6611 9.82061 14.9203 9.75956 15.4785C9.69638 16.0561 9.69478 16.8125 9.69478 17.9393C9.69478 19.0661 9.69638 19.8227 9.75956 20.4002C9.82061 20.9583 9.92883 21.2175 10.0513 21.3888C10.2221 21.6283 10.4473 21.832 10.7116 21.9869C10.9008 22.0977 11.187 22.1957 11.8035 22.2511C12.4412 22.3083 13.2765 22.3098 14.5208 22.3098H22.5985C23.3358 22.3098 23.9334 22.8508 23.9334 23.5186C23.9334 24.1862 23.3358 24.7274 22.5985 24.7274H14.4544C13.2938 24.7274 12.3252 24.7274 11.5399 24.6568C10.7185 24.5832 9.95499 24.4228 9.2621 24.0171C8.68046 23.6766 8.1853 23.2282 7.80923 22.7016C7.36124 22.074 7.18433 21.3825 7.10281 20.6387C7.02503 19.9277 7.02503 19.0506 7.02503 17.9996V17.8792C7.02503 16.828 7.02503 15.9509 7.10281 15.2399C7.18433 14.4961 7.36125 13.8046 7.80941 13.1772C8.18531 12.6504 8.68046 12.202 9.2621 11.8615C9.95499 11.4558 10.7185 11.2955 11.5399 11.2218C12.3252 11.1513 13.2938 11.1513 14.4544 11.1513H24.5239L23.028 9.90085Z" fill="#C0C0C0"/>
</svg>
