<svg width="36" height="33" viewBox="0 0 36 33" fill="none" xmlns="http://www.w3.org/2000/svg">
<path fill-rule="evenodd" clip-rule="evenodd" d="M2.98053 2.6326C0.374023 4.99298 0.374023 8.79195 0.374023 16.3899C0.374023 23.9878 0.374023 27.7869 2.98053 30.1472C5.58702 32.5076 9.78211 32.5076 18.1723 32.5076C26.5624 32.5076 30.7577 32.5076 33.3641 30.1472C35.9706 27.7869 35.9706 23.988 35.9706 16.3899C35.9706 8.792 35.9706 4.99298 33.3641 2.6326C30.7577 0.272217 26.5624 0.272217 18.1723 0.272217C9.78211 0.272217 5.58702 0.272217 2.98053 2.6326ZM13.2933 9.90085C13.835 9.44802 13.8688 8.68325 13.3687 8.19268C12.8687 7.70212 12.0242 7.67153 11.4825 8.12435L7.47784 11.4719C7.20408 11.7007 7.04838 12.0227 7.04838 12.3601C7.04838 12.6975 7.20408 13.0195 7.47784 13.2484L11.4825 16.5959C12.0242 17.0488 12.8687 17.0182 13.3687 16.5276C13.8688 16.0369 13.835 15.2721 13.2933 14.8194L11.7974 13.569H21.8005C23.0448 13.569 23.8801 13.5703 24.5178 13.6277C25.1343 13.6829 25.4205 13.7809 25.6097 13.8918C25.874 14.0466 26.0991 14.2504 26.27 14.4898C26.3923 14.6611 26.5007 14.9203 26.5617 15.4785C26.6249 16.0561 26.6265 16.8125 26.6265 17.9393C26.6265 19.0661 26.6249 19.8227 26.5617 20.4002C26.5007 20.9583 26.3925 21.2175 26.27 21.3888C26.0991 21.6283 25.874 21.8321 25.6097 21.9869C25.4205 22.0977 25.1343 22.1957 24.5178 22.2511C23.8801 22.3083 23.0448 22.3098 21.8005 22.3098H13.7227C12.9855 22.3098 12.3879 22.8508 12.3879 23.5186C12.3879 24.1862 12.9855 24.7274 13.7227 24.7274H21.8669C23.0275 24.7274 23.9961 24.7274 24.7814 24.6568C25.6028 24.5832 26.3663 24.4228 27.0592 24.0171C27.6408 23.6766 28.136 23.2282 28.5121 22.7016C28.96 22.074 29.137 21.3825 29.2185 20.6387C29.2963 19.9277 29.2963 19.0506 29.2963 17.9996V17.8792C29.2963 16.828 29.2963 15.9509 29.2185 15.2399C29.137 14.4961 28.96 13.8046 28.5119 13.1772C28.136 12.6504 27.6408 12.202 27.0592 11.8615C26.3663 11.4558 25.6028 11.2955 24.7814 11.2218C23.9961 11.1513 23.0275 11.1513 21.8669 11.1513H11.7974L13.2933 9.90085Z" fill="#C0C0C0"/>
</svg>
