<svg width="28" height="28" viewBox="0 0 28 28" fill="none" xmlns="http://www.w3.org/2000/svg">
<path d="M21.0709 10.6991L25.3135 14.9417C28.1773 17.8056 28.1773 22.4488 25.3135 25.3126C22.4497 28.1765 17.8065 28.1765 14.9427 25.3126L13.5284 23.8984C12.7473 23.1173 12.7473 21.851 13.5284 21.07C14.3095 20.2889 15.5757 20.2889 16.3568 21.07L17.7711 22.4842C19.0728 23.786 21.1833 23.786 22.4851 22.4842C23.7868 21.1825 23.7868 19.072 22.4851 17.7701L18.2424 13.5276C17.276 12.561 15.8635 12.3121 14.6672 12.7808C14.4523 12.865 14.2516 12.9541 14.0621 13.0417L13.4443 13.3304C12.6174 13.7045 11.9804 13.8653 11.1713 13.0561C10.0085 11.8933 10.3102 10.8198 11.7283 9.84179C14.5853 7.87142 18.5291 8.15719 21.0709 10.6991ZM8.66654 20.0001C9.70613 20.0001 10.5605 20.7933 10.6574 21.8075L10.6665 22.0001V24.6668C10.6665 25.7713 9.77111 26.6668 8.66654 26.6668C7.62694 26.6668 6.7726 25.8735 6.67569 24.8594L6.66654 24.6668V22.0001C6.66654 20.8956 7.56196 20.0001 8.66654 20.0001ZM4.66654 17.3334C5.77111 17.3334 6.66654 18.2289 6.66654 19.3334C6.66654 20.373 5.87335 21.2273 4.85915 21.3243L4.66654 21.3334H3.3332C2.22863 21.3334 1.3332 20.438 1.3332 19.3334C1.3332 18.2939 2.12638 17.4395 3.14059 17.3426L3.3332 17.3334H4.66654ZM13.0569 2.68524L14.4711 4.09946C15.2521 4.88051 15.2521 6.14683 14.4711 6.92788C13.69 7.70892 12.4237 7.70892 11.6427 6.92788L10.2284 5.51367C8.9267 4.21192 6.81615 4.21192 5.5144 5.51367C4.21266 6.81542 4.21266 8.92596 5.5144 10.2277L9.75704 14.4704C10.7236 15.4369 12.136 15.6858 13.3323 15.217C13.5472 15.1328 13.7479 15.0438 13.9374 14.9562L14.5553 14.6675C15.3821 14.2934 16.0191 14.1326 16.8283 14.9418C17.9911 16.1046 17.6893 17.1781 16.2712 18.1561C13.4141 20.1265 9.4705 19.8406 6.92862 17.2988L2.68598 13.0561C-0.177877 10.1923 -0.177877 5.54908 2.68598 2.68524C5.54982 -0.17861 10.193 -0.17861 13.0569 2.68524ZM24.6665 6.66675C25.7711 6.66675 26.6665 7.56218 26.6665 8.66675C26.6665 9.77132 25.7711 10.6668 24.6665 10.6668H23.3332C22.2287 10.6668 21.3332 9.77132 21.3332 8.66675C21.3332 7.56218 22.2287 6.66675 23.3332 6.66675H24.6665ZM19.3332 1.33342C20.3728 1.33342 21.2271 2.1266 21.324 3.1408L21.3332 3.33342V6.00008C21.3332 7.10466 20.4377 8.00008 19.3332 8.00008C18.2936 8.00008 17.4393 7.2069 17.3424 6.1927L17.3332 6.00008V3.33342C17.3332 2.22884 18.2287 1.33342 19.3332 1.33342Z" fill="#9E9E9E"/>
</svg>
